<svg id="Layer_1" data-name="Layer 1" xmlns="http://www.w3.org/2000/svg" viewBox="0 0 127.02 30.39"><defs><style>.cls-1{fill:#6666b8;}.cls-2{fill:none;stroke:#fff;stroke-miterlimit:10;}</style></defs><title>logo_1</title><path class="cls-1" d="M16.79,25.75a4.59,4.59,0,0,1-5-4.71V5.86H16.7V20.69a.88.88,0,0,0,1,1h1.25c0,.73.37,3.24,2.42,4.09Z"/><path class="cls-1" d="M28.35,25.75v-1.3A4.4,4.4,0,0,1,24.8,25.9,5.31,5.31,0,0,1,21,24.48a5.2,5.2,0,0,1-1.39-3.73c0-2.4,1.63-4.62,5.51-4.62h3.14v-.42c0-1.45-.71-2-2.4-2a3.19,3.19,0,0,0-2.52,1.13l-3-3c1.63-1.63,3.08-2.19,5.78-2.19,4.57,0,7,1.9,7,5.78V25.75Zm-.12-6.4H25.92c-1.13,0-1.69.5-1.69,1.3S24.8,22,26,22a2.28,2.28,0,0,0,1.75-.56,2,2,0,0,0,.5-1.63Z"/><path class="cls-1" d="M40.42,25.93c-2.4,0-4.74-.12-6.94-2.31l3.14-3.14a5.2,5.2,0,0,0,3.88,1.33c.71,0,2.08-.21,2.08-1,0-.44-.21-.92-1.16-1L39,19.53c-2.76-.27-4.62-1.51-4.62-4.63,0-3.53,3.17-5.28,6.34-5.28,2.61,0,4.71.39,6.28,2l-3,3a4.77,4.77,0,0,0-3.38-.95c-1.19,0-1.57.56-1.57.92s.24.8,1,.89l2.46.24c3.35.33,4.8,2.31,4.8,4.86C47.33,24.3,44.13,25.93,40.42,25.93Z"/><path class="cls-1" d="M57.61,25.75,54.3,19.92l-.95,1v4.8H48.48V4.65h4.86V15.38l4.3-5.57h5.84l-5.87,6.61,6,9.34Z"/><path class="cls-1" d="M69.36,14.16V25.75H64.5V14.16H63V10.43H64.5V9a4.59,4.59,0,0,1,5-4.71H72V8.41H70.34a.88.88,0,0,0-1,1v1H72v3.73Z"/><path class="cls-1" d="M77.92,25.75A4.59,4.59,0,0,1,73,21V4.65h4.86v16a.88.88,0,0,0,1,1h1.37s.76,3.13,3.09,4.09Z"/><path class="cls-1" d="M92.9,23.89a7.45,7.45,0,0,1-10.26,0c-1.33-1.45-1.75-3-1.75-6.11s.42-4.65,1.75-6.11a7.45,7.45,0,0,1,10.26,0c1.33,1.45,1.75,3,1.75,6.11S94.23,22.43,92.9,23.89Zm-3.82-9.43a2.14,2.14,0,0,0-2.61,0c-.62.62-.71,1.75-.71,3.32s.09,2.7.71,3.32a2.14,2.14,0,0,0,2.61,0c.62-.62.71-1.75.71-3.32S89.69,15.08,89.07,14.46Z"/><path class="cls-1" d="M112.61,25.75h-3.88L105.85,17,103,25.75H99.09L94.29,9.81h5.13l2,8.27,2.76-8.27h3.38l2.76,8.27,2-8.27h7.33a5,5,0,0,0-3.1,3Z"/><polygon class="cls-1" points="7.58 10.54 11.96 14.28 11.96 10.54 7.58 10.54"/><polygon class="cls-1" points="20.98 10.54 16.6 14.28 16.6 10.54 20.98 10.54"/><polyline class="cls-2" points="10.65 13.88 14.36 16.79 18.08 13.68"/></svg>